mtllib ./morpChamberGlow.mtl
g pb-Cone-2612106
v -0.8884008 -6.011436 0.1122857
v 0.0557996 -6.011436 1.747691
v 1 -6.011436 0.1122857
v 0.0557996 -6.011436 1.747691
v 1.9442 -6.011436 1.747691
v 1 -6.011436 0.1122857
v 1.9442 -6.011436 1.747691
v 2.888401 -6.011436 0.1122856
v 1 -6.011436 0.1122857
v 2.888401 -6.011436 0.1122856
v 1.9442 -6.011436 -1.523119
v 1 -6.011436 0.1122857
v 1.9442 -6.011436 -1.523119
v 0.05579984 -6.011436 -1.523119
v 1 -6.011436 0.1122857
v 0.05579984 -6.011436 -1.523119
v -0.8884008 -6.011436 0.1122857
v 1 -6.011436 0.1122857
v 0 0 0
v 0.5 0 0.8660254
v -0.8884008 -6.011436 0.1122857
v 0.0557996 -6.011436 1.747691
v 0.5 0 0.8660254
v 1.5 0 0.8660254
v 0.0557996 -6.011436 1.747691
v 1.9442 -6.011436 1.747691
v 1.5 0 0.8660254
v 2 0 -8.742278E-08
v 1.9442 -6.011436 1.747691
v 2.888401 -6.011436 0.1122856
v 2 0 -8.742278E-08
v 1.5 0 -0.8660254
v 2.888401 -6.011436 0.1122856
v 1.9442 -6.011436 -1.523119
v 0.5000001 0 -0.8660254
v 0 0 0
v 0.05579984 -6.011436 -1.523119
v -0.8884008 -6.011436 0.1122857
v 1.5 0 -0.8660254
v 0.5000001 0 -0.8660254
v 1.9442 -6.011436 -1.523119
v 0.05579984 -6.011436 -1.523119

vn 0 -1 0
vn 0 -1 0
vn 0 -1 0
vn 0 -1 0
vn 0 -1 0
vn 0 -1 0
vn 0 -1 0
vn 0 -1 0
vn 0 -1 0
vn 0 -0.9999999 0
vn 0 -0.9999999 0
vn 0 -0.9999999 0
vn 0 -1 0
vn 0 -1 0
vn 0 -1 0
vn 0 -0.9999999 0
vn 0 -0.9999999 0
vn 0 -0.9999999 0
vn -0.8579733 0.1360482 0.4953511
vn -0.8579734 0.1360483 0.4953507
vn -0.8579734 0.1360483 0.4953507
vn -0.8579735 0.1360483 0.4953506
vn 5.897374E-08 0.1451123 0.9894151
vn 7.476037E-08 0.1451123 0.9894152
vn 7.476037E-08 0.1451123 0.9894152
vn 8.312014E-08 0.1451123 0.9894152
vn 0.8579733 0.1360484 0.4953511
vn 0.8579734 0.1360483 0.4953507
vn 0.8579734 0.1360483 0.4953507
vn 0.8579735 0.1360482 0.4953506
vn 0.8599935 0.1178199 -0.4965176
vn 0.8599936 0.11782 -0.4965173
vn 0.8599936 0.11782 -0.4965173
vn 0.8599937 0.1178201 -0.4965171
vn -0.8599935 0.1178201 -0.4965175
vn -0.8599936 0.11782 -0.4965173
vn -0.8599936 0.11782 -0.4965173
vn -0.8599937 0.11782 -0.4965171
vn 0 0.1086601 -0.994079
vn 0 0.1086601 -0.9940789
vn 0 0.1086601 -0.9940789
vn 0 0.1086601 -0.994079

vt 0 0
vt 0.9442004 1.635405
vt 1.888401 0
vt 0 1.635405
vt 1.888401 1.635405
vt 0.9442004 0
vt 0.9442004 1.635405
vt 1.888401 -5.960464E-08
vt 0 1.192093E-07
vt 1.888401 1.635405
vt 0.9442002 0
vt 0 1.635405
vt 1.8884 0
vt 0 0
vt 0.9442002 1.635405
vt 0.9442006 0
vt 0 1.635405
vt 1.888401 1.635405
vt 0.346958 6.067853
vt 1.346958 6.067853
vt 0 0
vt 1.888403 0
vt 0.4442005 6.075747
vt 1.444201 6.075747
vt 0 0
vt 1.888401 0
vt 0.5414447 6.067853
vt 1.541445 6.067853
vt 0 0
vt 1.888403 0
vt 0.5414428 6.0536
vt 1.541443 6.0536
vt 0 0
vt 1.888403 0
vt 0.3469599 6.053599
vt 1.34696 6.053599
vt 0 0
vt 1.888403 0
vt 0.4442003 6.047242
vt 1.4442 6.047242
vt 0 0
vt 1.8884 0

g Default_Prototype
usemtl Default_Prototype
usemap Default_Prototype
f 2/2/2 1/1/1 3/3/3
f 5/5/5 4/4/4 6/6/6
f 8/8/8 7/7/7 9/9/9
f 11/11/11 10/10/10 12/12/12
f 14/14/14 13/13/13 15/15/15
f 17/17/17 16/16/16 18/18/18
f 20/20/20 19/19/19 21/21/21
f 22/22/22 20/20/20 21/21/21
f 24/24/24 23/23/23 25/25/25
f 26/26/26 24/24/24 25/25/25
f 28/28/28 27/27/27 29/29/29
f 30/30/30 28/28/28 29/29/29
f 32/32/32 31/31/31 33/33/33
f 34/34/34 32/32/32 33/33/33
f 36/36/36 35/35/35 37/37/37
f 38/38/38 36/36/36 37/37/37

g Crate01
usemtl Crate01
usemap Crate01
f 40/40/40 39/39/39 41/41/41
f 42/42/42 40/40/40 41/41/41
